<mxfile host="app.diagrams.net" modified="2022-08-12T13:02:42.110Z" agent="5.0 (Macintosh; Intel Mac OS X 10_15_7) AppleWebKit/537.36 (KHTML, like Gecko) Chrome/103.0.0.0 Safari/537.36" etag="BPClyWVVY6RUhw-Vc-Qv" version="20.0.2" type="github">
  <diagram id="vA1Mwwlki-n_E3SzybSL" name="Page-1">
    <mxGraphModel dx="946" dy="621" grid="1" gridSize="10" guides="1" tooltips="1" connect="1" arrows="1" fold="1" page="1" pageScale="1" pageWidth="827" pageHeight="1169" math="0" shadow="0">
      <root>
        <mxCell id="0" />
        <mxCell id="1" parent="0" />
        <mxCell id="zbpn0ASb3LzRVK3qtcD5-1" value="" style="rounded=0;whiteSpace=wrap;html=1;strokeWidth=2;" vertex="1" parent="1">
          <mxGeometry x="60" y="90" width="580" height="90" as="geometry" />
        </mxCell>
        <mxCell id="zbpn0ASb3LzRVK3qtcD5-3" value="" style="strokeWidth=2;html=1;shape=mxgraph.flowchart.annotation_2;align=left;labelPosition=right;pointerEvents=1;rotation=90;" vertex="1" parent="1">
          <mxGeometry x="345" y="20" width="40" height="370" as="geometry" />
        </mxCell>
        <mxCell id="zbpn0ASb3LzRVK3qtcD5-4" value="" style="rounded=0;whiteSpace=wrap;html=1;strokeWidth=2;" vertex="1" parent="1">
          <mxGeometry x="60" y="230" width="130" height="350" as="geometry" />
        </mxCell>
        <mxCell id="zbpn0ASb3LzRVK3qtcD5-8" value="" style="rounded=0;whiteSpace=wrap;html=1;strokeWidth=2;" vertex="1" parent="1">
          <mxGeometry x="210" y="230" width="130" height="350" as="geometry" />
        </mxCell>
        <mxCell id="zbpn0ASb3LzRVK3qtcD5-9" value="" style="rounded=0;whiteSpace=wrap;html=1;strokeWidth=2;" vertex="1" parent="1">
          <mxGeometry x="360" y="230" width="130" height="350" as="geometry" />
        </mxCell>
        <mxCell id="zbpn0ASb3LzRVK3qtcD5-10" value="" style="rounded=0;whiteSpace=wrap;html=1;strokeWidth=2;" vertex="1" parent="1">
          <mxGeometry x="510" y="230" width="130" height="350" as="geometry" />
        </mxCell>
        <mxCell id="zbpn0ASb3LzRVK3qtcD5-11" value="ETH" style="rounded=0;whiteSpace=wrap;html=1;" vertex="1" parent="1">
          <mxGeometry x="70" y="100" width="120" height="60" as="geometry" />
        </mxCell>
        <mxCell id="zbpn0ASb3LzRVK3qtcD5-12" value="" style="rounded=0;whiteSpace=wrap;html=1;strokeWidth=2;" vertex="1" parent="1">
          <mxGeometry x="60" y="600" width="580" height="90" as="geometry" />
        </mxCell>
      </root>
    </mxGraphModel>
  </diagram>
</mxfile>
